<svg width="3938" height="2475" xmlns="http://www.w3.org/2000/svg" xmlns:xlink="http://www.w3.org/1999/xlink" overflow="hidden"><defs><clipPath id="clip0"><rect x="231" y="0" width="3938" height="2475"/></clipPath><clipPath id="clip1"><rect x="1475" y="149" width="1450" height="2177"/></clipPath><clipPath id="clip2"><rect x="1475" y="149" width="1450" height="2177"/></clipPath><clipPath id="clip3"><rect x="1475" y="149" width="1450" height="2177"/></clipPath></defs><g clip-path="url(#clip0)" transform="translate(-231 0)"><path d="M590.306 824.764 401.676 824.764 401.676 1409.06 324.614 1409.06 324.614 824.764 137.134 824.764 137.134 755.754 590.306 755.754 590.306 824.764ZM945.713 942.083 730.628 1483.82C692.672 1580.44 638.614 1628.75 569.603 1628.75 550.05 1628.75 533.948 1626.45 521.295 1623L521.295 1556.28C537.398 1562.03 552.35 1564.33 565.002 1564.33 602.958 1564.33 630.562 1541.33 650.116 1496.47L686.921 1407.91 505.193 942.083 588.006 942.083 714.526 1300.94C715.676 1305.54 719.126 1317.04 723.728 1336.6L726.028 1336.6C727.178 1329.7 730.628 1318.19 735.229 1302.09L867.501 942.083 945.713 942.083 945.713 942.083ZM1067.63 1341.2 1065.33 1341.2 1065.33 1623 990.571 1623 990.571 942.083 1065.33 942.083 1065.33 1023.75 1067.63 1023.75C1104.44 961.637 1158.5 930.581 1228.66 930.581 1288.47 930.581 1335.63 951.286 1368.98 992.691 1402.34 1034.1 1419.59 1090.46 1419.59 1160.62 1419.59 1238.83 1400.03 1300.94 1362.08 1348.1 1324.12 1395.26 1272.36 1418.26 1206.8 1418.26 1148.15 1420.56 1100.99 1394.11 1067.63 1341.2L1067.63 1341.2ZM1066.48 1153.72 1066.48 1219.28C1066.48 1258.38 1079.13 1290.59 1104.44 1317.04 1129.74 1343.5 1160.8 1357.3 1199.9 1357.3 1244.76 1357.3 1280.42 1340.05 1306.87 1305.54 1332.18 1271.04 1344.83 1222.73 1344.83 1160.62 1344.83 1108.86 1333.32 1067.45 1309.17 1038.7 1285.02 1008.79 1252.81 994.992 1211.41 994.992 1167.7 994.992 1133.19 1009.94 1106.74 1039.85 1079.13 1069.75 1066.48 1107.71 1066.48 1153.72L1066.48 1153.72ZM1877.36 1193.97 1548.41 1193.97C1549.56 1245.73 1563.36 1285.99 1589.82 1314.74 1616.27 1343.5 1653.08 1357.3 1700.23 1357.3 1753.14 1357.3 1801.45 1340.05 1845.15 1305.54L1845.15 1375.7C1803.76 1405.61 1749.69 1420.56 1682.98 1420.56 1617.42 1420.56 1565.66 1399.86 1527.71 1357.3 1489.75 1314.74 1471.35 1254.93 1471.35 1179.02 1471.35 1106.56 1492.05 1046.75 1533.46 1001.89 1574.86 955.886 1625.47 932.882 1686.43 932.882 1747.39 932.882 1794.56 952.436 1827.91 992.691 1861.27 1031.8 1878.51 1087.01 1878.51 1157.17L1877.36 1193.97 1877.36 1193.97ZM1800.29 1130.71C1800.29 1087.01 1789.95 1053.65 1769.24 1029.5 1748.54 1005.34 1719.79 993.842 1684.13 993.842 1648.47 993.842 1618.58 1006.49 1594.42 1031.8 1570.27 1057.1 1554.16 1090.46 1548.41 1130.71L1800.29 1130.71ZM1914.17 1386.05 1914.17 1334.3C1961.33 1364.2 2008.48 1379.15 2056.79 1379.15 2107.4 1379.15 2146.51 1368.8 2172.95 1346.95 2199.41 1325.1 2212.06 1296.34 2212.06 1258.38 2212.06 1225.03 2202.86 1198.57 2185.62 1177.87 2168.36 1158.32 2129.25 1130.71 2070.6 1096.21 2003.89 1057.1 1962.48 1024.9 1945.22 999.593 1927.98 973.139 1918.78 943.234 1918.78 909.878 1918.78 863.871 1937.18 824.764 1972.82 792.56 2008.48 760.355 2056.79 744.252 2116.6 744.252 2155.71 744.252 2194.82 751.154 2232.77 763.805L2232.77 810.963C2194.82 793.71 2153.41 784.509 2109.71 784.509 2064.85 784.509 2030.33 796.011 2003.89 817.865 1977.43 840.867 1964.78 868.473 1964.78 902.977 1964.78 936.332 1973.98 962.788 1991.22 982.34 2008.48 1001.89 2047.59 1029.5 2106.24 1062.85 2167.2 1097.36 2207.47 1128.41 2228.17 1154.87 2248.86 1181.32 2258.07 1212.38 2258.07 1248.03 2258.07 1298.64 2240.82 1338.9 2206.31 1371.1 2171.81 1403.31 2122.36 1418.26 2059.09 1418.26 2036.08 1418.26 2010.78 1414.81 1980.88 1407.91 1950.97 1401.01 1929.12 1395.26 1914.17 1386.05L1914.17 1386.05ZM2646.84 1388.35C2612.32 1409.06 2570.93 1420.56 2522.62 1420.56 2459.36 1420.56 2407.6 1398.71 2368.49 1355 2329.38 1311.29 2309.84 1254.93 2309.84 1183.62 2309.84 1110.01 2331.69 1049.05 2375.39 1001.89 2419.1 954.736 2475.45 930.581 2544.47 930.581 2580.13 930.581 2614.63 937.483 2647.98 952.435L2647.98 999.593C2614.63 978.89 2577.82 968.539 2538.72 968.539 2483.51 968.539 2439.8 988.091 2405.3 1027.2 2370.8 1066.3 2354.68 1118.06 2354.68 1180.17 2354.68 1241.13 2370.8 1289.44 2401.85 1326.24 2432.9 1363.05 2474.31 1381.45 2524.91 1381.45 2572.07 1381.45 2612.32 1368.8 2646.84 1344.65L2646.84 1388.35 2646.84 1388.35ZM2925.19 985.791C2911.38 975.438 2895.28 970.838 2875.72 970.838 2838.91 970.838 2807.86 990.392 2783.71 1028.35 2758.39 1066.3 2746.91 1120.36 2746.91 1190.52L2746.91 1410.21 2705.49 1410.21 2705.49 942.083 2746.91 942.083 2746.91 1045.6 2749.19 1045.6C2759.55 1009.94 2776.81 982.34 2799.81 962.788 2822.82 943.234 2849.26 932.882 2880.33 932.882 2897.57 932.882 2913.68 935.183 2926.33 940.934L2926.33 985.791 2925.19 985.791 2925.19 985.791ZM2991.9 824.764C2982.68 824.764 2974.64 821.314 2967.74 814.413 2960.83 807.512 2957.38 799.461 2957.38 789.11 2957.38 778.758 2960.83 770.706 2967.74 764.955 2974.64 759.204 2982.68 755.754 2991.9 755.754 3001.1 755.754 3009.14 759.204 3017.2 764.955 3024.09 770.706 3027.54 778.758 3027.54 789.11 3027.54 798.311 3024.09 807.512 3017.2 814.413 3009.14 821.314 3001.1 824.764 2991.9 824.764ZM2971.19 1409.06 2971.19 942.083 3012.59 942.083 3012.59 1409.06 2971.19 1409.06ZM3156.37 1326.24 3154.07 1326.24 3154.07 1624.14 3112.65 1624.14 3112.65 942.083 3154.07 942.083 3154.07 1038.7 3156.37 1038.7C3173.61 1004.19 3196.62 977.739 3227.67 959.336 3258.74 940.934 3293.24 931.732 3330.04 931.732 3389.86 931.732 3435.86 952.435 3469.22 992.691 3502.57 1034.1 3518.67 1089.31 3518.67 1159.47 3518.67 1237.68 3499.12 1300.94 3461.16 1349.25 3423.21 1397.56 3372.6 1421.71 3310.5 1421.71 3241.48 1420.56 3189.72 1389.5 3156.37 1326.24ZM3154.07 1152.57 3154.07 1211.23C3154.07 1258.38 3169.02 1298.64 3197.77 1332 3227.67 1365.35 3265.64 1382.6 3313.95 1382.6 3361.09 1382.6 3400.2 1361.9 3430.11 1321.64 3460.02 1280.24 3474.97 1227.33 3474.97 1160.62 3474.97 1101.96 3461.16 1055.95 3433.56 1021.45 3405.95 986.94 3370.29 969.687 3324.29 969.687 3270.23 969.687 3227.67 988.091 3197.77 1024.9 3167.87 1061.7 3154.07 1103.11 3154.07 1152.57ZM3772.86 1402.16C3751.01 1412.51 3730.31 1417.11 3711.9 1417.11 3642.89 1417.11 3608.39 1375.7 3608.39 1292.89L3608.39 981.189 3524.42 981.189 3524.42 943.234 3608.39 943.234 3608.39 821.314 3629.1 814.413 3649.8 807.512 3649.8 943.234 3772.86 943.234 3772.86 981.189 3649.8 981.189 3649.8 1289.44C3649.8 1321.64 3654.39 1344.65 3664.74 1359.6 3675.1 1374.55 3692.36 1381.45 3716.51 1381.45 3733.75 1381.45 3752.16 1375.7 3772.86 1364.2L3772.86 1402.16 3772.86 1402.16Z" fill="#007ACC" transform="matrix(1.00015 0 0 1 231 0)"/><rect x="333" y="619" width="3747" height="1076" fill="#FFFFFF"/><g clip-path="url(#clip1)"><g clip-path="url(#clip2)"><g clip-path="url(#clip3)"><path d="M2924.6 1685.34C2920.97 1686.55 2920.17 1689.77 2919.36 1692.59 2909.3 1694.6 2904.07 1703.46 2898.03 1709.9 2861.8 1747.74 2821.54 1780.34 2776.46 1806.91 2715.67 1842.74 2651.67 1870.11 2582.83 1886.62 2585.65 1851.6 2589.67 1816.17 2590.48 1781.15 2592.49 1703.46 2590.88 1626.17 2582.83 1548.88 2594.1 1540.42 2605.77 1532.77 2616.24 1523.51 2651.67 1492.12 2677.43 1454.28 2686.69 1407.58 2698.36 1349.61 2691.12 1292.45 2672.2 1236.49 2662.94 1208.72 2652.87 1181.34 2642.81 1153.97 2650.06 1153.57 2653.28 1158.8 2657.7 1162.83 2692.73 1196.64 2728.96 1229.25 2761.16 1265.88 2813.9 1325.86 2860.59 1389.46 2890.78 1464.34 2897.22 1480.84 2900.44 1498.56 2910.91 1513.45 2915.74 1538.41 2920.17 1563.77 2925 1588.73 2924.6 1620.93 2924.6 1653.14 2924.6 1685.34Z" fill="#7365A6"/><path d="M1480.64 1701.04C1479.43 1697.02 1480.23 1692.18 1475.4 1689.37 1475.4 1641.06 1475.4 1592.75 1475.4 1544.45 1483.86 1522.71 1483.05 1498.96 1486.27 1476.42 1505.19 1351.62 1541.42 1232.07 1584.09 1113.71 1606.23 1052.93 1630.79 992.948 1656.95 933.37 1664.6 954.303 1662.19 976.846 1663.4 998.181 1667.02 1058.16 1674.26 1117.74 1685.54 1176.51 1689.56 1197.45 1689.16 1220.39 1704.05 1238.1 1701.24 1248.97 1699.63 1259.44 1700.43 1270.71 1699.22 1272.32 1697.21 1273.93 1697.21 1275.54 1687.55 1345.59 1680.3 1416.03 1677.08 1486.48 1674.26 1554.51 1668.63 1622.95 1672.65 1691.38 1675.47 1742.1 1680.3 1792.42 1684.33 1842.74 1621.53 1816.57 1564.77 1781.15 1516.06 1732.84 1504.79 1721.57 1495.93 1707.88 1480.64 1701.04Z" fill="#938ABB"/><path d="M1704.46 1238.1C1689.56 1220.39 1689.96 1197.04 1685.94 1176.51 1674.67 1117.74 1667.02 1058.16 1663.8 998.181 1662.59 976.846 1665.01 954.303 1657.36 933.37 1735.05 759.064 1820.79 589.187 1929.48 431.788 1993.89 338.395 2065.95 251.846 2163.37 189.45 2188.73 172.945 2216.91 162.882 2244.28 151.61 2249.51 151.61 2255.15 151.61 2260.38 151.61 2254.75 206.76 2255.55 261.91 2259.98 317.06 2250.32 318.268 2243.88 325.513 2236.23 330.747 2204.03 354.095 2172.22 377.443 2140.02 400.791 2132.37 356.913 2129.55 312.632 2131.57 267.143 2101.37 279.22 2060.72 323.501 2034.55 357.718 1979.8 428.567 1935.92 505.455 1899.69 587.174 1855.41 686.202 1818.38 787.646 1788.19 891.907 1768.86 942.227 1756.39 994.961 1743.1 1046.89 1727 1109.69 1712.51 1173.29 1704.46 1238.1Z" fill="#BDB7CC"/><path d="M2328.41 582.343C2369.88 684.994 2421.4 781.607 2490.24 868.559 2501.51 882.648 2512.38 897.14 2523.25 911.23 2521.64 954.303 2511.17 996.974 2514.39 1040.85 2513.59 1087.55 2520.03 1133.44 2525.67 1179.73 2533.72 1245.75 2546.6 1310.56 2556.26 1376.18 2564.71 1433.34 2578 1489.7 2578.4 1548.07 2533.72 1577.46 2483.4 1592.35 2431.87 1604.83 2355.79 1622.95 2277.69 1622.95 2200 1628.98 2197.58 1628.98 2194.77 1628.58 2192.35 1628.58 2178.66 1612.48 2165.38 1596.78 2151.69 1580.68 2151.69 1579.47 2151.69 1577.86 2151.69 1576.65 2173.43 1546.86 2189.53 1513.85 2206.04 1481.25 2244.28 1403.55 2257.57 1321.83 2243.88 1236.49 2232.61 1165.64 2217.31 1095.6 2211.27 1023.95 2205.64 957.524 2208.86 892.712 2226.17 827.901 2235.02 794.892 2251.53 764.7 2257.16 730.886 2262.4 718.809 2268.43 706.732 2273.26 694.656 2286.15 661.244 2303.46 629.442 2313.52 594.822 2319.96 592.809 2319.96 582.343 2328.41 582.343Z" fill="#928ABB"/><path d="M2328.41 582.343C2319.96 582.343 2319.96 592.407 2313.12 594.42 2290.98 608.509 2273.67 628.234 2254.75 645.947 2246.7 653.595 2241.06 664.464 2228.98 666.879 2209.66 633.065 2197.99 596.432 2184.3 560.203 2164.98 509.883 2153.3 457.149 2140.02 404.817 2140.02 403.206 2140.42 401.999 2140.42 400.389 2172.63 377.04 2204.43 353.692 2236.63 330.344 2243.88 325.111 2250.32 317.865 2260.38 316.657 2272.06 408.037 2297.02 496.196 2328.41 582.343Z" fill="#9A91C0"/><path d="M2514.39 1041.25C2510.77 997.779 2521.64 955.108 2523.25 911.632 2573.57 970.003 2623.89 1027.97 2673.4 1086.74 2729.36 1153.16 2783.3 1221.6 2827.58 1296.47 2865.42 1360.08 2895.21 1426.9 2910.51 1499.76 2911.31 1504.59 2912.92 1509.02 2910.51 1513.45 2900.04 1498.56 2897.22 1480.84 2890.38 1464.34 2860.19 1389.46 2813.49 1325.86 2760.76 1265.88 2728.55 1229.25 2692.32 1196.64 2657.3 1162.83 2653.28 1158.8 2649.65 1153.16 2642.41 1153.97L2642.41 1153.97C2642.41 1152.36 2642.41 1150.75 2642.41 1149.54 2621.47 1131.02 2601.75 1111.3 2580.01 1094.39 2557.87 1077.08 2540.16 1054.14 2514.39 1041.25Z" fill="#BDB7CC"/><path d="M2801.01 2019.46C2772.43 2068.17 2732.98 2107.22 2691.12 2143.85 2665.76 2166.39 2640.39 2190.14 2608.19 2203.03 2605.37 2201.42 2602.55 2198.2 2599.74 2197.79 2551.03 2190.55 2505.14 2172.43 2457.63 2160.76 2438.71 2150.29 2418.59 2142.64 2397.65 2135.8 2352.57 2111.24 2305.87 2089.51 2263.2 2061.33 2204.83 2022.68 2148.88 1980.41 2098.96 1931.3 2153.3 1926.07 2207.65 1935.33 2262.4 1932.51 2346.93 1928.08 2430.66 1921.64 2513.99 1906.75 2516.81 1905.54 2519.63 1904.33 2522.45 1903.12 2537.34 1918.02 2556.26 1925.67 2574.38 1934.93 2592.89 1944.18 2611.01 1954.25 2629.53 1962.7 2685.08 1986.85 2741.03 2008.99 2801.01 2019.46Z" fill="#776AA9"/><path d="M1480.64 1701.04C1495.93 1707.88 1504.79 1721.57 1516.06 1732.84 1564.77 1781.15 1621.53 1816.57 1684.33 1842.74 1684.73 1843.95 1685.13 1845.16 1685.54 1846.36 1695.6 1916.01 1712.1 1983.63 1740.28 2048.45 1785.37 2152.3 1856.22 2232.01 1960.48 2279.91 1964.91 2281.93 1969.74 2282.33 1971.35 2287.56 1928.28 2279.11 1889.63 2258.98 1850.99 2239.26 1785.37 2204.64 1726.19 2160.76 1674.67 2107.62 1574.03 2003.36 1509.62 1879.78 1483.86 1736.87 1482.25 1724.79 1481.84 1712.72 1480.64 1701.04Z" fill="#BDB7CC"/><path d="M2801.01 2019.46C2741.03 2008.99 2685.08 1986.85 2629.93 1962.7 2611.01 1954.65 2592.89 1944.18 2574.78 1934.93 2572.36 1920.03 2580.41 1905.94 2578.8 1890.64 2580.01 1889.44 2581.62 1887.83 2582.83 1886.62 2651.67 1870.52 2715.67 1842.74 2776.46 1806.91 2821.54 1780.34 2861.8 1747.74 2898.03 1709.9 2904.47 1703.46 2909.3 1694.6 2919.36 1692.59 2923.39 1715.13 2916.14 1736.47 2912.12 1757.8 2895.21 1853.61 2858.18 1940.96 2801.01 2019.46Z" fill="#A9A1BC"/><path d="M1971.35 2287.56C1969.74 2282.33 1964.91 2281.52 1960.48 2279.91 1856.22 2232.01 1785.77 2152.71 1740.28 2048.45 1712.1 1983.63 1695.6 1915.6 1685.54 1846.36 1708.08 1854.41 1730.62 1862.06 1753.16 1870.11 1799.06 1886.62 1846.96 1894.67 1894.06 1907.15 1894.86 1916.01 1891.24 1924.06 1888.83 1932.51 1873.93 1981.62 1863.87 2030.73 1869.1 2083.06 1876.75 2159.95 1910.56 2220.74 1970.54 2268.24 1983.83 2278.71 2001.94 2283.13 2010.8 2299.64 1997.92 2295.61 1984.63 2291.59 1971.35 2287.56Z" fill="#7F73AE"/><path d="M2010.8 2299.64C2001.94 2283.13 1983.83 2279.11 1970.54 2268.24 1910.56 2220.34 1876.75 2159.95 1869.1 2083.06 1863.87 2030.73 1873.93 1981.62 1888.83 1932.51 1891.24 1924.06 1894.86 1916.01 1894.06 1907.15 1895.27 1907.15 1896.47 1906.75 1897.68 1906.75 1906.54 1910.77 1917.41 1908.36 1925.86 1914.39 1924.25 1920.84 1923.45 1927.68 1921.43 1933.72 1898.08 2005.37 1898.49 2077.03 1926.26 2147.47 1950.42 2208.26 1989.87 2254.15 2055.89 2271.46 2092.52 2281.12 2128.75 2277.1 2164.98 2269.04 2255.96 2248.51 2335.66 2207.45 2397.65 2136.2 2418.18 2142.64 2438.31 2150.69 2457.63 2161.16 2446.36 2184.11 2427.04 2200.21 2407.72 2214.7 2340.89 2265.02 2267.23 2300.85 2183.5 2314.94 2175.44 2316.14 2163.77 2312.92 2158.94 2324.19 2109.02 2322.58 2059.11 2316.95 2010.8 2299.64Z" fill="#938ABB"/><path d="M2159.34 2323.79C2164.17 2312.52 2175.85 2315.74 2183.9 2314.53 2267.23 2300.44 2341.3 2264.62 2408.12 2214.3 2427.44 2199.81 2446.77 2183.3 2458.04 2160.76 2505.54 2172.83 2551.43 2190.95 2600.14 2197.79 2602.96 2198.2 2605.77 2201.01 2608.59 2203.03 2590.48 2221.14 2566.73 2231.61 2544.59 2242.88 2425.03 2303.26 2298.22 2331.44 2163.77 2324.6 2162.16 2324.6 2160.95 2324.19 2159.34 2323.79Z" fill="#A9A1BC"/><path d="M2582.43 1886.62C2581.22 1887.83 2579.61 1889.44 2578.4 1890.64 2559.48 1894.27 2541.77 1901.92 2522.45 1902.72 2519.63 1903.93 2516.81 1905.14 2513.99 1906.34 2513.19 1897.49 2505.14 1895.07 2499.1 1891.05 2401.68 1829.05 2314.73 1754.58 2233.81 1672.06 2220.93 1658.77 2207.25 1645.89 2200 1628.58 2277.69 1622.95 2355.79 1622.95 2431.87 1604.43 2483.4 1591.95 2533.72 1577.46 2578.4 1547.67 2579.61 1547.67 2580.82 1547.67 2582.43 1548.07 2590.88 1625.36 2592.09 1703.05 2590.07 1780.34 2589.27 1816.57 2585.24 1851.6 2582.43 1886.62Z" fill="#68599F"/><path d="M2582.43 1548.88C2581.22 1548.88 2580.01 1548.47 2578.4 1548.47 2578.4 1490.51 2564.71 1433.75 2556.26 1376.58 2546.6 1310.97 2533.72 1245.75 2525.67 1180.14 2520.03 1133.84 2513.19 1087.95 2514.39 1041.25 2540.16 1054.14 2557.87 1077.48 2580.41 1094.79 2602.55 1111.7 2622.28 1131.43 2642.81 1149.94 2640.39 1151.55 2639.19 1152.76 2642.81 1154.37L2642.81 1154.37C2652.47 1181.75 2662.53 1209.12 2672.2 1236.9 2691.12 1292.85 2698.36 1350.01 2686.69 1407.98 2677.43 1454.28 2651.26 1492.52 2616.24 1523.92 2605.37 1532.77 2593.7 1540.42 2582.43 1548.88Z" fill="#A9A1BC"/><path d="M2151.69 1576.65C2151.69 1577.86 2151.69 1579.47 2151.69 1580.68 2139.62 1594.36 2126.33 1607.25 2119.49 1624.96 2102.58 1622.14 2085.27 1620.13 2068.36 1616.91 1949.61 1594.36 1854.21 1535.99 1785.77 1434.95 1758.4 1394.7 1740.69 1350.42 1720.96 1306.94L1720.96 1306.94C1720.96 1303.72 1720.16 1300.5 1716.94 1298.89 1708.48 1291.24 1712.91 1276.35 1700.83 1270.71 1700.03 1259.44 1702.04 1248.97 1704.46 1238.1 1712.91 1173.29 1727 1109.69 1743.1 1046.49 1756.39 994.156 1769.27 941.824 1788.19 891.505 1795.43 894.725 1796.24 901.166 1797.85 907.607 1803.89 930.955 1810.33 953.901 1817.98 976.846 1853 1085.13 1896.47 1189.8 1953.64 1288.02 1964.51 1306.94 1968.93 1331.09 1990.67 1343.17 1992.68 1365.71 2005.57 1382.22 2022.88 1395.5 2022.07 1403.15 2025.29 1409.99 2029.72 1416.03 2049.44 1443.81 2067.96 1472.39 2088.9 1499.36 2109.02 1525.53 2127.94 1552.9 2151.69 1576.65Z" fill="#7062A5"/><path d="M1700.83 1270.71C1712.91 1276.35 1708.48 1291.24 1716.94 1298.89 1716.94 1302.11 1717.74 1305.33 1720.96 1306.94L1720.96 1306.94C1720.96 1314.99 1721.36 1322.64 1724.18 1330.69 1746.72 1398.32 1772.89 1464.74 1803.89 1529.15 1848.57 1622.14 1905.33 1707.48 1966.52 1790.01 1935.12 1823.82 1915.39 1864.48 1898.08 1906.75 1896.88 1906.75 1895.67 1907.15 1894.46 1907.15 1847.77 1894.67 1799.46 1886.62 1753.57 1870.11 1731.02 1862.06 1708.48 1854.01 1685.94 1846.36 1685.54 1845.16 1685.13 1843.95 1684.73 1842.74 1680.71 1792.42 1675.87 1741.7 1673.06 1691.38 1669.03 1622.95 1674.67 1554.91 1677.48 1486.48 1680.3 1416.03 1687.95 1345.59 1697.61 1275.54 1697.61 1273.93 1699.63 1272.32 1700.83 1270.71Z" fill="#7365A6"/><path d="M1990.67 1343.17C1968.93 1331.09 1964.91 1306.94 1953.64 1288.02 1896.47 1189.8 1853.4 1085.13 1817.98 976.846 1810.73 953.901 1804.29 930.955 1797.85 907.607 1796.24 900.763 1795.43 894.323 1788.19 891.505 1817.98 787.243 1855.41 685.799 1899.69 586.771 1935.92 505.053 1979.8 428.165 2034.55 357.315 2060.72 323.098 2101.78 279.22 2131.57 266.741 2129.55 312.229 2132.37 356.51 2140.02 400.389 2140.02 401.999 2139.62 403.206 2139.62 404.817 2135.99 406.829 2131.97 408.037 2129.15 410.452 2077.62 451.11 2026.1 491.366 1982.62 540.477 1948.81 578.72 1923.45 622.196 1913.38 673.723 1902.11 731.691 1906.54 788.853 1913.78 846.821 1925.06 939.811 1947.6 1031.19 1960.48 1124.18 1970.54 1197.45 1981.82 1270.31 1990.67 1343.17Z" fill="#7F73AE"/><path d="M1966.52 1790.01C1905.33 1707.48 1848.57 1621.74 1803.89 1529.15 1772.89 1464.74 1746.72 1398.32 1724.18 1330.69 1721.77 1322.64 1720.96 1314.99 1720.96 1306.94 1740.69 1350.42 1758.4 1394.7 1785.77 1434.95 1854.61 1535.99 1949.61 1594.36 2068.36 1616.91 2085.27 1620.13 2102.58 1622.14 2119.49 1624.96 2144.04 1622.14 2167.8 1630.19 2192.35 1628.58 2194.77 1628.58 2197.58 1628.98 2200 1628.98 2207.65 1646.29 2220.93 1659.58 2233.81 1672.46 2314.73 1754.58 2401.68 1829.46 2499.1 1891.45 2504.73 1895.07 2513.19 1897.49 2513.99 1906.75 2430.66 1921.64 2346.93 1928.48 2262.4 1932.51 2207.65 1935.33 2153.3 1925.67 2098.96 1931.3 2096.54 1930.9 2094.13 1930.09 2091.31 1929.69 2089.7 1926.87 2089.3 1922.85 2086.88 1920.84 2043.81 1880.18 2005.57 1834.69 1966.52 1790.01Z" fill="#61529B"/><path d="M2151.69 1576.65C2128.35 1552.9 2109.43 1525.53 2088.9 1499.36 2067.96 1472.39 2049.44 1443.81 2029.72 1416.03 2025.29 1409.99 2022.07 1403.15 2022.88 1395.5 2024.08 1392.68 2026.1 1389.87 2026.9 1386.65 2052.26 1281.18 2078.43 1175.71 2102.98 1069.84 2121.9 988.923 2141.23 907.607 2151.29 825.083 2157.73 773.959 2178.26 730.886 2209.66 691.435 2215.3 684.592 2220.93 677.748 2231 678.553 2239.45 695.863 2247.9 713.173 2256.36 730.08 2251.12 763.895 2234.22 794.087 2225.36 827.096 2208.05 891.907 2204.83 956.718 2210.47 1023.14 2216.5 1094.79 2231.8 1164.84 2243.07 1235.69 2256.76 1321.03 2243.48 1402.75 2205.23 1480.44 2189.53 1514.26 2173.43 1546.86 2151.69 1576.65Z" fill="#7F73AE"/><path d="M2256.76 730.483C2248.31 713.173 2239.85 695.863 2231.4 678.956 2230.59 674.931 2229.79 670.905 2228.58 667.282 2241.06 664.867 2246.29 653.998 2254.34 646.349 2273.26 628.637 2290.57 608.912 2312.72 594.822 2302.25 629.442 2284.94 661.244 2272.46 694.656 2268.03 706.732 2261.99 718.406 2256.76 730.483Z" fill="#BDB7CC"/><path d="M2192.35 1628.58C2167.8 1630.19 2144.04 1622.14 2119.49 1624.96 2126.33 1607.65 2139.21 1594.36 2151.69 1580.68 2165.38 1596.78 2178.66 1612.48 2192.35 1628.58Z" fill="#776AA9"/><path d="M2228.98 667.282C2229.79 671.307 2230.59 675.333 2231.8 678.956 2221.34 677.748 2215.7 684.994 2210.47 691.838 2179.07 731.288 2158.54 774.361 2152.1 825.486 2141.63 908.009 2122.71 989.325 2103.79 1070.24 2079.23 1176.11 2053.07 1281.58 2027.71 1387.05 2026.9 1390.27 2024.89 1392.68 2023.68 1395.91 2006.37 1382.62 1993.49 1366.52 1991.48 1343.57 1982.62 1270.31 1971.35 1197.45 1961.29 1124.58 1948.4 1031.59 1925.86 940.616 1914.59 847.224 1907.75 789.256 1902.92 732.093 1914.19 674.125 1924.25 622.598 1949.61 579.123 1983.43 540.88 2026.9 491.768 2078.83 451.513 2129.96 410.855 2133.18 408.44 2137.2 407.232 2140.42 405.219 2153.71 457.551 2165.38 509.883 2184.7 560.605 2197.58 596.432 2209.66 633.467 2228.98 667.282Z" fill="#776AA9"/><path d="M2642.81 1153.97C2639.19 1152.36 2640.39 1150.75 2642.81 1149.54 2642.81 1151.15 2642.81 1152.76 2642.81 1153.97Z" fill="#7365A6"/><path d="M2091.31 1929.69C2093.73 1930.09 2096.14 1930.9 2098.96 1931.3 2149.28 1980.41 2204.83 2022.68 2263.2 2061.33 2306.27 2089.91 2352.57 2111.65 2397.65 2135.8 2335.66 2207.05 2255.96 2248.11 2164.98 2268.64 2129.15 2276.69 2092.52 2280.72 2055.89 2271.06 1989.87 2253.75 1950.42 2207.86 1926.26 2147.07 1898.49 2076.62 1898.08 2005.37 1921.43 1933.31 1923.45 1926.87 1924.25 1920.43 1925.86 1913.99 1935.92 1914.39 1945.59 1915.2 1955.65 1916.81 2000.74 1923.65 2046.22 1927.68 2091.31 1929.69Z" fill="#BDB7CC"/><path d="M2522.45 1903.12C2541.77 1901.92 2559.88 1894.27 2578.4 1891.05 2580.01 1905.94 2571.96 1920.03 2574.38 1935.33 2556.26 1925.67 2536.94 1918.02 2522.45 1903.12Z" fill="#928ABB"/><path d="M2091.31 1929.69C2045.82 1927.68 2000.74 1923.65 1956.05 1917.21 1945.99 1915.6 1936.33 1915.2 1926.26 1914.39 1917.81 1908.36 1906.94 1910.77 1898.08 1906.75 1915.39 1864.48 1935.12 1823.82 1966.52 1790.01 2005.57 1834.69 2043.81 1880.18 2086.88 1920.84 2089.3 1923.25 2090.1 1926.87 2091.31 1929.69Z" fill="#68599F"/><path d="M1720.96 1306.94C1717.74 1305.33 1716.94 1302.11 1716.94 1298.89 1720.16 1300.5 1720.96 1303.72 1720.96 1306.94Z" fill="#61529B"/></g></g></g></g></svg>